<svg width="442" height="263" viewBox="0 0 442 263" fill="none" xmlns="http://www.w3.org/2000/svg">
<path d="M142.4 120.4H84.4C81.2 120.4 79.4 122.2 79.4 125.4V143.4C79.4 146.6 81.2 148.4 84.4 148.4H114.4C108.8 164.4 93.8 170.6 78.6 170.6C55 170.6 37.8 154 37.8 127C37.8 102 53.8 85.4 78.6 85.4C93.4 85.4 106.2 92.4 112 101.4C113.4 103.8 115 105 117.8 105H141.4C145 105 146.8 102.8 145.6 99.4C137.4 73.8 110.4 54.2 78.6 54.2C36.4 54.2 5.8 85.8 5.8 127C5.8 168.2 35.6 199.8 74.6 199.8C93.4 199.8 107.8 193.4 117.2 180.8V192C117.2 195.2 119 197 122.2 197H142.2C145.4 197 147.2 195.2 147.2 192V148.4V125.4C147.2 122.2 145.4 120.4 142.2 120.4H142.4Z" fill="#F5421C"/>
<path d="M216.445 97H205.445V70C205.445 66.8 203.645 65 200.445 65H180.445C177.245 65 175.445 66.8 175.445 70V97H164.445C161.245 97 159.445 98.8 159.445 102V120.8C159.445 124 161.245 125.8 164.445 125.8H175.445V192C175.445 195.2 177.245 197 180.445 197H200.445C203.645 197 205.445 195.2 205.445 192V125.8H216.445C219.645 125.8 221.445 124 221.445 120.8V102C221.445 98.8 219.645 97 216.445 97ZM286.214 95.4C276.214 97 268.214 102.8 265.414 113V102C265.414 98.8 263.614 97 260.414 97H240.414C237.214 97 235.414 98.8 235.414 102V192C235.414 195.2 237.214 197 240.414 197H260.414C263.614 197 265.414 195.2 265.414 192V149.8C265.414 133.8 276.214 128.2 287.414 128.6C290.014 128.6 291.414 127 291.414 123.8V100.2C291.414 97 289.614 94.8 286.214 95.4ZM309.359 85H329.359C332.559 85 334.359 83.2 334.359 80V62C334.359 58.8 332.559 57 329.359 57H309.359C306.159 57 304.359 58.8 304.359 62V80C304.359 83.2 306.159 85 309.359 85ZM309.359 197H329.359C332.559 197 334.359 195.2 334.359 192V102C334.359 98.8 332.559 97 329.359 97H309.359C306.159 97 304.359 98.8 304.359 102V192C304.359 195.2 306.159 197 309.359 197ZM437.513 191L409.113 146.2L436.313 103C438.513 99.6 436.913 97 432.913 97H412.113C409.513 97 407.513 98.2 406.113 100.4L393.313 120.8L380.513 100.4C379.113 98.2 377.113 97 374.513 97H353.713C349.713 97 348.113 99.6 350.313 103L377.313 146.2L349.113 191C346.913 194.4 348.513 197 352.513 197H373.313C375.913 197 377.913 195.8 379.313 193.6L393.313 171.4L407.313 193.6C408.713 195.8 410.713 197 413.313 197H434.113C438.113 197 439.713 194.4 437.513 191Z" fill="white"/>
<path d="M334.05 249.8L321.85 216.9C321.65 216.35 321.2 216 320.65 216H317.2C316.6 216 316.2 216.35 316 216.9L303.8 249.8C303.55 250.55 303.9 251 304.65 251H307.4C308 251 308.4 250.7 308.6 250.15L311.1 243.2H326.7L329.2 250.15C329.4 250.7 329.85 251 330.45 251H333.15C333.95 251 334.3 250.55 334.05 249.8ZM312.65 238.85L318.9 221.45L325.15 238.85H312.65ZM361.598 216H359.348C358.698 216 358.298 216.4 358.298 217.1V230.25C356.298 227.25 353.098 225.4 348.848 225.4C341.948 225.4 336.198 231.1 336.198 238.5C336.198 245.95 341.948 251.65 348.848 251.65C353.098 251.65 356.298 249.8 358.298 246.8V249.95C358.298 250.65 358.698 251 359.348 251H361.598C362.298 251 362.648 250.65 362.648 249.95V217.1C362.648 216.4 362.298 216 361.598 216ZM349.448 247.45C344.398 247.45 340.548 243.6 340.548 238.5C340.548 233.4 344.398 229.55 349.448 229.55C354.448 229.55 358.298 233.4 358.298 238.5C358.298 243.6 354.448 247.45 349.448 247.45ZM393.788 225.4C390.988 225.4 388.438 226.4 386.588 229.3C385.238 226.75 382.788 225.4 380.088 225.4C377.688 225.4 375.338 226.3 373.638 228.75V227.1C373.638 226.4 373.238 226 372.588 226H370.338C369.638 226 369.288 226.4 369.288 227.1V249.95C369.288 250.65 369.638 251 370.338 251H372.588C373.238 251 373.638 250.65 373.638 249.95V235.8C373.638 230.9 376.688 229.5 378.938 229.5C381.288 229.5 383.288 230.85 383.288 234.35V249.95C383.288 250.65 383.688 251 384.338 251H386.588C387.288 251 387.638 250.65 387.638 249.95V235.8C387.638 230.9 390.688 229.5 392.938 229.5C395.288 229.5 397.288 230.85 397.288 234.35V249.95C397.288 250.65 397.688 251 398.388 251H400.588C401.288 251 401.638 250.65 401.638 249.95V234.15C401.638 228.4 398.188 225.4 393.788 225.4ZM408.717 221.5H410.967C411.617 221.5 412.017 221.15 412.017 220.45V217.1C412.017 216.4 411.617 216 410.967 216H408.717C408.017 216 407.667 216.4 407.667 217.1V220.45C407.667 221.15 408.017 221.5 408.717 221.5ZM408.717 251H410.967C411.617 251 412.017 250.65 412.017 249.95V227.1C412.017 226.4 411.617 226 410.967 226H408.717C408.017 226 407.667 226.4 407.667 227.1V249.95C407.667 250.65 408.017 251 408.717 251ZM430.404 225.4C427.354 225.4 424.804 226.4 423.004 229.1V227.1C423.004 226.4 422.604 226 421.954 226H419.704C419.004 226 418.654 226.4 418.654 227.1V249.95C418.654 250.65 419.004 251 419.704 251H421.954C422.604 251 423.004 250.65 423.004 249.95V236.8C423.004 231.4 426.104 229.5 429.254 229.5C432.204 229.5 434.404 231.35 434.404 234.95V249.95C434.404 250.65 434.804 251 435.504 251H437.704C438.404 251 438.754 250.65 438.754 249.95V234.8C438.754 228.9 435.054 225.4 430.404 225.4Z" fill="white"/>
</svg>
