<svg width="0" height="0" class="hidden">
    <symbol xmlns="http://www.w3.org/2000/svg" viewBox="0 0 120 16" id="virna">
        <g clip-path="url(#virna_svg)">
            <path d="M16.0841 0.994374C14.4889 1.20837 14.0984 1.42236 13.2247 3.55569C12.5827 5.11948 9.29303 13.0602 8.12478 16.0001H7.34044C5.9339 12.1845 3.88534 6.63717 2.52514 3.1277C1.86324 1.37297 1.45286 1.13594 0 0.994374V0.335938H6.05305V0.994374C4.28909 1.18532 4.19312 1.46844 4.52737 2.34746C5.12308 4.07585 6.86387 8.79355 8.36307 12.731C9.62729 9.67256 11.1993 5.81742 12.3344 2.82153C12.8573 1.4454 12.5727 1.23141 10.6168 0.994374V0.335938H16.0973L16.0841 0.994374Z"></path>
            <path d="M26.2273 15.74V15.0816C28.1799 14.8709 28.3718 14.7754 28.3718 12.7771V3.3417C28.3718 1.30384 28.1799 1.20837 26.2273 0.994374V0.335938H32.6146V0.994374C30.6289 1.20837 30.4436 1.30384 30.4436 3.3417V12.754C30.4436 14.7919 30.6355 14.8643 32.6146 15.0586V15.717L26.2273 15.74Z"></path>
            <path d="M56.8763 15.9309C56.5686 15.9309 56.3038 15.9045 55.996 15.8815C54.2552 15.763 53.3253 15.3119 52.2762 13.8436C51.3958 12.6354 50.5387 11.1407 49.7742 9.93252C49.2976 9.17202 48.9899 9.03046 47.7885 9.03046H46.9512V12.7539C46.9512 14.7687 47.216 14.8873 49.1222 15.0584V15.7169H42.7449V15.0584C44.7306 14.8477 44.8894 14.7523 44.8894 12.7539V3.29548C44.8894 1.28067 44.628 1.20824 42.7449 0.990956V0.33252H48.8211C50.5619 0.33252 51.7301 0.546515 52.6336 1.13911C53.1546 1.47522 53.5784 1.94092 53.8628 2.49008C54.1473 3.03924 54.2825 3.65279 54.2552 4.26996C54.2552 6.30782 52.9314 7.58848 51.1807 8.34569C51.611 9.08313 52.6336 10.67 53.3517 11.7366C53.9198 12.5939 54.5479 13.4102 55.2315 14.1794C55.6859 14.7115 56.2935 15.0919 56.9723 15.2691L56.8763 15.9309ZM48.0831 8.214C49.3241 8.214 50.1085 8.02635 50.7042 7.52923C51.6341 6.84117 52.028 5.88314 52.028 4.61235C52.028 2.07408 50.3368 1.15227 48.5034 1.15227C47.8117 1.15227 47.4046 1.24445 47.2391 1.38931C47.024 1.55392 46.9512 1.79095 46.9512 2.40659V8.214H48.0831Z"></path>
            <path d="M84.0204 0.994374C82.498 1.16227 81.995 1.3993 81.9255 2.48902C81.899 3.24622 81.8527 4.24375 81.8527 6.43963V15.9475H80.9459L70.7493 3.55569V9.48162C70.7493 11.615 70.8188 12.6816 70.8685 13.3697C70.9148 14.5779 71.5105 14.9335 73.2248 15.075V15.7335H67.4366V15.075C68.9126 14.9565 69.4851 14.601 69.5811 13.4289C69.6506 12.6684 69.7002 11.6018 69.7002 9.4454V3.41413C69.7002 2.75569 69.6506 2.3705 69.2237 1.84705C68.7703 1.25445 68.2705 1.11289 67.1023 0.994374V0.335938H70.6765L80.7804 12.2602V6.44623C80.7804 4.24376 80.7341 3.22318 80.6612 2.51206C80.5884 1.4454 80.0424 1.11289 78.1361 0.994374V0.335938H84.0204V0.994374Z"></path>
            <path d="M103.993 15.7399V15.0815C105.541 14.8939 105.73 14.6568 105.399 13.7646C105.068 12.8725 104.611 11.6544 104.112 10.163H98.9621C98.5815 11.2297 98.2241 12.1383 97.8899 13.126C97.367 14.6667 97.7012 14.8544 99.6538 15.1013V15.7597H94.1501V15.1013C95.6526 14.9136 96.0332 14.7457 96.8672 12.6124L101.798 0.167929L102.563 0.0263672C104.062 4.07904 105.707 8.5597 107.196 12.6618C107.957 14.7227 108.172 14.9136 109.864 15.1013V15.7597L103.993 15.7399ZM101.61 3.10456C100.845 5.14242 100.034 7.2988 99.3195 9.17205H103.777L101.61 3.10456Z"></path>
        </g>
        <defs>
            <clipPath id="virna_svg">
                <rect width="120" height="16" fill="white"></rect>
            </clipPath>
        </defs>
    </symbol>
    <symbol xmlns="http://www.w3.org/2000/svg" viewBox="0 0 65 10" id="bonum">
        <path fill-rule="evenodd" clip-rule="evenodd" d="M12.1031 0C9.25829 0 7.17549 2.09333 7.17549 5C7.17549 6.13333 7.49299 7.13333 8.05179 7.94667H0.977899C0.431799 7.94667 0 8.41333 0 8.97333V10H12.1031H12.1158C14.9606 10 17.0307 7.90667 17.0307 5C17.018 2.09333 14.9606 0 12.1031 0ZM12.0904 8.25333C10.3886 8.25333 9.14399 6.90667 9.14399 5C9.14399 3.12 10.3759 1.74667 12.0904 1.74667C13.8176 1.74667 15.0495 3.12 15.0495 5C15.0495 6.90667 13.8176 8.25333 12.0904 8.25333ZM28.6899 5C28.6899 7.90667 26.6325 10 23.775 10C20.9302 10 18.8474 7.90667 18.8474 5C18.8474 2.09333 20.9302 0 23.775 0C26.6198 0 28.6899 2.09333 28.6899 5ZM20.8159 5C20.8159 6.90667 22.0478 8.25333 23.7623 8.25333C25.4895 8.25333 26.7214 6.90667 26.7214 5C26.7214 3.12 25.4895 1.74667 23.7623 1.74667C22.0478 1.74667 20.8159 3.12 20.8159 5ZM39.0918 4.25333V8.97333H39.0537V10H38.0758C37.5424 10 37.0979 9.54667 37.0979 8.97333V4.25333C37.0979 2.70667 36.1835 1.69333 34.7738 1.69333C33.3641 1.69333 32.4497 2.72 32.4497 4.25333V10H31.4718C30.9384 10 30.4939 9.54667 30.4939 8.97333V4.25333C30.4939 1.72 32.2338 0 34.7738 0C37.3392 0 39.0918 1.72 39.0918 4.25333ZM49.4923 0.826667V0H48.5271C47.981 0 47.5492 0.466667 47.5492 1.02667V5.76C47.5492 7.29333 46.6094 8.29333 45.1997 8.29333C43.79 8.29333 42.8756 7.29333 42.8756 5.76V4.58667V1.22667V0.826667V0H41.9103C41.3642 0 40.9324 0.453333 40.9324 1.02667V5.77333C40.9324 8.29333 42.6724 10 45.2251 10C47.7651 10 49.505 8.28 49.505 5.77333V3.36V1.22667L49.4923 0.826667ZM58.1673 1.85333C58.7388 0.693333 59.9072 0 61.3931 0C63.5775 0 65.0126 1.53333 64.9999 3.86667V10H64.022C63.4886 10 63.0441 9.54667 63.0441 8.97333V3.81333C63.0441 2.52 62.2821 1.64 61.101 1.64C59.9199 1.64 59.1325 2.52 59.1325 3.81333V7.30667V8.77333V9.17333V9.85333V10H58.1673C57.6339 10 57.1894 9.54667 57.1894 8.97333V3.81333C57.1894 2.52 56.402 1.64 55.2209 1.64C54.0398 1.64 53.2778 2.52 53.2778 3.81333V8.96V9.98667H52.2999C51.7665 9.98667 51.3219 9.53333 51.3219 8.96V3.86667C51.3219 1.53333 52.7444 0 54.9415 0C56.4274 0 57.5958 0.693333 58.1673 1.85333Z"></path>
    </symbol>
    <symbol xmlns="http://www.w3.org/2000/svg" viewBox="0 0 18 16" id="favourite">
        <path fill-rule="evenodd" clip-rule="evenodd" d="M15.8619 2.15927C15.1324 1.4031 14.1808 1 13.1723 1C12.1636 1 11.2119 1.40304 10.482 2.1592L9.00001 3.69555L7.51812 2.1593C6.78862 1.40324 5.83656 1 4.82806 1C3.81953 1 2.86746 1.4032 2.13809 2.15925C0.620537 3.73231 0.620798 6.31559 2.1379 7.88757L9.00001 15L15.862 7.88772C17.3791 6.31575 17.3796 3.73232 15.8619 2.15927Z" stroke="black"></path>
    </symbol>
    <symbol xmlns="http://www.w3.org/2000/svg" viewBox="0 0 18 18" id="icon_camera">
        <rect x="1" y="1" width="16" height="16" rx="5" stroke="black"></rect>
        <rect x="5.44434" y="5.44434" width="7" height="7" rx="3.5" stroke="black"></rect>
        <rect x="12.5557" y="3.6665" width="1" height="1" rx="0.5" stroke="black"></rect>
    </symbol>
    <symbol xmlns="http://www.w3.org/2000/svg" viewBox="0 0 15 18" id="icon_cart">
        <path d="M2 5.07861L13 5.07861L14 17.0002L1 17.0002L2 5.07861Z" stroke="black"></path>
        <path d="M10.6767 6.96078L10.6767 4.07895C10.6767 2.37849 9.2982 1 7.59775 1V1C5.89729 1 4.5188 2.37849 4.5188 4.07895L4.5188 6.96078" stroke="black" stroke-linecap="round" stroke-linejoin="round"></path>
    </symbol>
    <symbol xmlns="http://www.w3.org/2000/svg" viewBox="0 0 9 5" id="arrow_down">
        <path d="M1 1L4.61249 4.45686L8.20919 0.983571" stroke="black" stroke-linecap="round" stroke-linejoin="round"></path>
    </symbol>
    <symbol xmlns="http://www.w3.org/2000/svg" viewBox="0 0 77 528" id="virna_2">
        <path d="M72.1092 77.7C71.0817 70.0438 70.0543 68.1694 59.8113 63.976C52.3029 60.8945 14.1761 45.1055 0.0603176 39.4984L0.0603178 35.7338C18.3808 28.983 45.0158 19.1507 61.8662 12.6223C70.2914 9.44543 71.4295 7.47578 72.1092 0.502601L75.2706 0.502602L75.2706 29.5549L72.1092 29.5549C71.1924 21.0886 69.833 20.6279 65.6125 22.2322C57.3138 25.0914 34.6621 33.4465 15.7568 40.6421C30.4416 46.7098 48.9518 54.2549 63.3363 59.7031C69.9436 62.2129 70.9711 60.8468 72.1092 51.4592L75.2706 51.4592L75.2706 77.7635L72.1092 77.7Z"></path>
        <path d="M1.30909 126.384L4.47052 126.384C5.48217 135.756 5.94058 136.677 15.5355 136.677L60.8387 136.677C70.6233 136.677 71.0817 135.756 72.1092 126.384L75.2706 126.384L75.2706 157.041L72.1092 157.041C71.0817 147.51 70.6233 146.621 60.8387 146.621L15.6461 146.621C5.86151 146.621 5.51375 147.542 4.58113 157.041L1.4197 157.041L1.30909 126.384Z"></path>
        <path d="M0.391462 273.488C0.391462 272.011 0.517909 270.74 0.628559 269.263C1.19762 260.908 3.3632 256.444 10.4132 251.409C16.2144 247.184 23.3908 243.07 29.1921 239.4C32.8435 237.113 33.5232 235.636 33.5232 229.87L33.5232 225.851L15.6453 225.851C5.97137 225.851 5.40231 227.122 4.58034 236.271L1.41892 236.271L1.41892 205.662L4.58034 205.662C5.592 215.193 6.05041 215.955 15.6453 215.955L61.0592 215.955C70.7332 215.955 71.0809 214.7 72.1242 205.662L75.2856 205.662L75.2856 234.826C75.2856 243.181 74.2582 248.788 71.4129 253.124C69.7991 255.625 67.563 257.659 64.9263 259.024C62.2896 260.389 59.3436 261.039 56.3803 260.908C46.5957 260.908 40.4467 254.554 36.8111 246.151C33.2703 248.216 25.6512 253.124 20.5297 256.571C16.4137 259.298 12.4944 262.312 8.80087 265.593C6.24625 267.774 4.41984 270.691 3.56871 273.949L0.391462 273.488ZM37.4434 231.284C37.4434 237.24 38.3444 241.005 40.7312 243.864C44.0349 248.327 48.6348 250.218 54.7364 250.218C66.9237 250.218 71.3497 242.101 71.3497 233.301C71.3497 229.981 70.9071 228.027 70.2116 227.233C69.4212 226.201 68.2831 225.851 65.3272 225.851L37.4434 225.851L37.4434 231.284Z"></path>
        <path d="M72.1092 403.768C71.303 396.462 70.165 394.047 64.9328 393.714C61.2972 393.587 56.5076 393.364 45.9642 393.364L0.31323 393.364L0.313231 389.012L59.8113 340.073L31.3584 340.073C21.1154 340.073 15.9939 340.406 12.6902 340.644C6.88898 340.867 5.18182 343.726 4.50211 351.954L1.34069 351.954L1.34069 324.173L4.50211 324.173C5.07117 331.257 6.77834 334.005 12.4057 334.465C16.0571 334.799 21.1786 335.037 31.5323 335.037L60.491 335.037C63.6524 335.037 65.5018 334.799 68.0152 332.75C70.8604 330.574 71.5401 328.175 72.1092 322.568L75.2706 322.568L75.2706 339.723L18.0172 388.218L45.9326 388.218C56.5076 388.218 61.4078 387.995 64.8221 387.646C69.9436 387.296 71.5401 384.676 72.1092 375.526L75.2706 375.526L75.2706 403.768L72.1092 403.768Z"></path>
        <path d="M1.30977 499.628L4.4712 499.628C5.3722 507.061 6.51032 507.967 10.7941 506.378C15.0778 504.79 20.9264 502.598 28.087 500.199L28.087 475.484C22.9655 473.657 18.6027 471.941 13.8606 470.337C6.46285 467.827 5.56185 469.432 4.37631 478.803L1.21488 478.803L1.21488 452.388L4.37631 452.388C5.27732 459.599 6.08353 461.426 16.3266 465.429L76.0775 489.096L76.7572 492.766C57.2986 499.961 35.7851 507.856 16.0894 515.004C6.19413 518.657 5.27732 519.689 4.37631 527.806L1.21488 527.806L1.30977 499.628ZM61.9775 488.191C52.1929 484.522 41.8392 480.63 32.845 477.199L32.845 498.595L61.9775 488.191Z"></path>
    </symbol>
</svg>